<?xml version="1.0" standalone="no"?>
<!DOCTYPE svg PUBLIC "-//W3C//DTD SVG 20010904//EN"
 "http://www.w3.org/TR/2001/REC-SVG-20010904/DTD/svg10.dtd">
<svg version="1.0" xmlns="http://www.w3.org/2000/svg"
 width="512.000000pt" height="512.000000pt" viewBox="0 0 512.000000 512.000000"
 preserveAspectRatio="xMidYMid meet">
<metadata>
Created by potrace 1.11, written by Peter Selinger 2001-2013
</metadata>
<g transform="translate(0.000000,512.000000) scale(0.100000,-0.100000)"
fill="#000000" stroke="none">
<path d="M2423 4140 c-305 -34 -537 -164 -604 -337 -30 -79 -38 -231 -15 -300
39 -119 179 -181 318 -143 44 13 110 61 150 111 l29 36 -26 54 c-29 62 -34
158 -11 213 18 43 77 91 135 107 25 8 92 14 151 14 97 0 110 -2 171 -31 124
-59 180 -139 187 -269 9 -168 -62 -334 -201 -476 -20 -20 -98 -90 -174 -155
-218 -187 -301 -281 -358 -405 -79 -175 -73 -405 16 -512 82 -99 239 -111 369
-27 l47 30 -15 67 c-8 41 -12 104 -10 158 4 81 8 97 43 165 34 66 68 104 280
315 256 254 303 313 366 465 42 99 59 187 59 310 0 119 -16 195 -60 285 -71
147 -249 263 -470 309 -94 19 -282 27 -377 16z"/>
<path d="M2312 1551 c-94 -32 -147 -103 -163 -218 -17 -122 16 -240 85 -300
44 -40 95 -56 176 -57 187 -2 280 95 280 294 0 106 -22 175 -74 226 -70 71
-194 93 -304 55z"/>
</g>
</svg>
