<?xml version="1.0" standalone="no"?>
<!DOCTYPE svg PUBLIC "-//W3C//DTD SVG 20010904//EN"
 "http://www.w3.org/TR/2001/REC-SVG-20010904/DTD/svg10.dtd">
<svg version="1.0" xmlns="http://www.w3.org/2000/svg"
 width="1000.000000pt" height="1000.000000pt" viewBox="0 0 1000.000000 1000.000000"
 preserveAspectRatio="xMidYMid meet">
<metadata>
Created by potrace 1.11, written by Peter Selinger 2001-2013
</metadata>
<g transform="translate(0.000000,1000.000000) scale(0.100000,-0.100000)"
fill="#000000" stroke="none">
<path d="M500 5000 l0 -4500 4500 0 4500 0 0 4500 0 4500 -4500 0 -4500 0 0
-4500z m8435 0 l0 -3935 -3935 0 -3935 0 -1 3936 -1 3936 3936 -1 3936 -1 0
-3935z"/>
<path d="M3293 7291 c-5 -3 -9 -974 -8 -2296 l0 -2290 307 -1 c219 -1 308 2
311 10 2 6 3 440 3 965 -1 706 2 955 10 958 7 2 378 6 825 7 448 2 830 6 849
10 157 30 198 39 267 62 446 144 747 509 833 1010 22 124 29 328 17 440 -50
450 -291 800 -679 989 -93 45 -245 95 -338 110 -19 3 -46 8 -60 10 -14 3 -41
8 -60 12 -46 8 -2265 12 -2277 4z m2077 -534 c14 -3 43 -9 65 -12 119 -16 253
-64 344 -122 125 -80 238 -238 267 -374 22 -107 27 -149 26 -259 0 -425 -183
-681 -552 -774 -52 -13 -117 -27 -145 -31 -27 -4 -369 -9 -760 -10 l-710 -3 1
791 c1 436 2 795 3 798 1 8 1431 4 1461 -4z"/>
</g>
</svg>
